# xmcd
#
# Track frame offsets:
#	187
#	14807
#	29977
#	44095
#	65142
#	88967
#	118375
#	136782
#	154832
#	173342
#	193905
#	218115
#	234227
#	248412
#	275037
#
# Disc length: 3922 seconds
#
# Revision: 1
# Processed by: cddbd v1.5.1PL0 Copyright (c) Steve Scherf et al.
# Submitted via: CDex 1.50Beta5
#
DISCID=e70f500f
DTITLE=Various Artist - NEW MUSIC BEST SELECTION   9
DYEAR=1900
DGENRE=New Age
TTITLE0=松山千春/季節の中で
TTITLE1=松山千春/青春
TTITLE2=松山千春/旅立ち
TTITLE3=松山千春/恋
TTITLE4=山崎ハコ/白い花
TTITLE5=山崎ハコ/飛びます
TTITLE6=南こうせつ/上海エレジー
TTITLE7=南こうせつ/満天の星
TTITLE8=伊勢正三/青春の一ページ
TTITLE9=伊勢正三/若き日の唄
TTITLE10=円 広志/夢想花
TTITLE11=斉藤哲夫/いまのキミはピカピカに光って
TTITLE12=小坂恭子/想い出まくら
TTITLE13=明日香/花ぬすびと
TTITLE14=高樹 澪/ダンスはうまく踊れない
EXTD=
EXTT0=
EXTT1=
EXTT2=
EXTT3=
EXTT4=
EXTT5=
EXTT6=
EXTT7=
EXTT8=
EXTT9=
EXTT10=
EXTT11=
EXTT12=
EXTT13=
EXTT14=
PLAYORDER=
